# xmcd
# 
# Track frame offsets:
#     150
#     24337
#     41320
#     48307
#     67546
#     77774
#     94098
#     109355
#     128732
#     134835
#     151320
#     173638
#     188375
# 
# Disc length: 2591
# 
# Revision: 2
# Processed by: cddbd v1.5.2PL0 Copyright (c) Steve Scherf et al.
# Submitted via: fre:ac v1.0.31
# 
DISCID=990a1d0d
DTITLE=Asleep At The Wheel - Remembers The Alamo
DYEAR=2003
DGENRE=Country
TTITLE0=Remember The Alamo
TTITLE1=Green Leaves of Summer
TTITLE2=Billy in the Low Ground
TTITLE3=Ballad of the Alamo
TTITLE4=Deguello
TTITLE5=Ballad of Davy Crockett
TTITLE6=Yellow Rose of Texas
TTITLE7=New San Antonio Rose
TTITLE8=Eighth of January
TTITLE9=Across The Alley From The Alamo
TTITLE10=Stout and High
TTITLE11=Don't Go There
TTITLE12=Soldier's Joy
EXTD=YEAR: 2003
EXTT0=
EXTT1=
EXTT2=
EXTT3=
EXTT4=
EXTT5=
EXTT6=
EXTT7=
EXTT8=
EXTT9=
EXTT10=
EXTT11=
EXTT12=
PLAYORDER=
